<?xml version="1.0" encoding="utf-8"?>
<!-- Generator: Adobe Illustrator 19.1.0, SVG Export Plug-In . SVG Version: 6.00 Build 0)  -->
<svg version="1.1" id="Layer_1" xmlns="http://www.w3.org/2000/svg" xmlns:xlink="http://www.w3.org/1999/xlink" x="0px" y="0px"
	 viewBox="0 0 360 117" style="enable-background:new 0 0 360 117;" xml:space="preserve">
<style type="text/css">
	.st0{fill:#00B7F1;}
	.st1{fill:#002D5B;}
	.st2{fill:#006394;}
</style>
<g>
	<g>
		<g>
			<polygon class="st0" points="107.9,116.6 105.4,116.6 105.4,98 98.1,98 98.1,95.5 115.3,95.5 115.3,98 107.9,98 			"/>
		</g>
		<g>
			<polygon class="st0" points="130.5,116.6 117.7,116.6 117.7,95.5 129.9,95.5 129.9,98 120.2,98 120.2,104.7 128.3,104.7 
				128.3,107.2 120.2,107.2 120.2,114.1 130.5,114.1 			"/>
		</g>
		<g>
			<path class="st0" d="M142.2,117c-6,0-10.5-4.7-10.5-11c0-6.1,4.5-10.7,10.4-10.7c4.8,0,7.3,2.6,7.4,2.7l0.5,0.6l-1.6,1.9
				l-0.7-0.7c-0.1-0.1-2-2-5.6-2c-4.5,0-7.9,3.5-7.9,8.2c0,4.9,3.4,8.5,8,8.5c3.8,0,6-2.4,6.1-2.5l0.7-0.8l1.5,2l-0.5,0.5
				C149.9,113.9,147.2,117,142.2,117z"/>
		</g>
		<g>
			<polygon class="st0" points="169.4,116.6 166.9,116.6 166.9,107.3 155.7,107.3 155.7,116.6 153.2,116.6 153.2,95.5 155.7,95.5 
				155.7,104.8 166.9,104.8 166.9,95.5 169.4,95.5 			"/>
		</g>
		<g>
			<polygon class="st0" points="188.5,116.6 176.8,100.2 176.8,116.6 174.3,116.6 174.3,95.5 176.6,95.5 188.2,112 188.2,95.5 
				190.7,95.5 190.7,116.6 			"/>
		</g>
		<g>
			<path class="st0" d="M204.8,117c-5.9,0-10.6-4.8-10.6-11c0-6,4.6-10.7,10.6-10.7c5.9,0,10.6,4.7,10.6,10.7
				C215.4,112.1,210.7,117,204.8,117z M204.8,97.7c-4.5,0-8.1,3.6-8.1,8.2c0,4.8,3.5,8.5,8.1,8.5c4.5,0,8.1-3.7,8.1-8.5
				C212.9,101.3,209.3,97.7,204.8,97.7z"/>
		</g>
		<g>
			<polygon class="st0" points="230.8,116.6 218.9,116.6 218.9,95.5 221.4,95.5 221.4,114.1 230.8,114.1 			"/>
		</g>
		<g>
			<path class="st0" d="M241,117c-5.9,0-10.6-4.8-10.6-11c0-6,4.6-10.7,10.6-10.7c5.9,0,10.6,4.7,10.6,10.7
				C251.6,112.1,246.9,117,241,117z M241,97.7c-4.5,0-8.1,3.6-8.1,8.2c0,4.8,3.5,8.5,8.1,8.5c4.5,0,8.1-3.7,8.1-8.5
				C249.1,101.3,245.5,97.7,241,97.7z"/>
		</g>
		<g>
			<path class="st0" d="M263.9,117c-5.8,0-10.2-4.7-10.2-10.9s4.5-10.9,10.4-10.9c2.8,0,5.5,1,7.3,2.5l0.6,0.6l-1.6,1.9l-0.7-0.6
				c-1.4-1.2-3.6-2-5.6-2c-4.5,0-7.9,3.6-7.9,8.4c0,4.9,3.3,8.4,7.8,8.4c3.3,0,5.4-2.2,6.1-3.1v-2.5h-3.8v-2.5h6.3v10.3h-2.5v-1.8
				C268.8,115.9,266.8,117,263.9,117z"/>
		</g>
		<g>
			<polygon class="st0" points="282.5,116.6 280,116.6 280,107.6 272.6,95.5 275.5,95.5 281.3,104.8 287,95.5 289.9,95.5 
				282.5,107.6 			"/>
		</g>
	</g>
	<g>
		<g>
			<path class="st1" d="M99,9.4h22.5c13,0,21.5,7.2,21.5,20.5c0,13.1-8.7,20.4-21.5,20.4h-19.8v29.4H99V9.4z M121.2,47.6
				c11.8,0,19.1-6.4,19.1-17.7c0-11.5-7.2-17.8-19.2-17.8h-19.4v35.5H121.2z"/>
			<path class="st1" d="M168.7,9.4h3l26.4,70.3h-2.9l-9.3-24.9h-31.3l-9.3,24.9h-2.9L168.7,9.4z M155.5,52.1h29.3L170.2,13
				L155.5,52.1z"/>
			<path class="st1" d="M218.2,49.2L193.8,9.4h3.2l22.6,36.7l22.5-36.7h3.2l-24.4,39.8v30.5h-2.7V49.2z"/>
			<path class="st1" d="M308.2,70.3c0,0-9.2,10.6-26,10.6c-20.5,0-35-16.3-35-36.9c0-20.4,14.9-35.9,34.6-35.9
				c16.2,0,24.6,8.8,24.6,8.8l-1.7,2.1c0,0-7.9-8.2-22.8-8.2c-18.1,0-31.9,14.1-31.9,33.1c0,19.2,13.6,34.2,32.2,34.2
				c15.6,0,24.4-10,24.4-10L308.2,70.3z"/>
			<path class="st1" d="M320.1,9.4h38v2.7h-35.3v30.7H352v2.7h-29.1V77H360v2.7h-39.9V9.4z"/>
		</g>
		<g>
			<path class="st0" d="M41.7,61.4c0,0,12.3-12.2,12.3-27.2s-9.3-21.6-12.6-26c-0.8-1.1,0.3-1.4,0.3-1.4s29.3,18.9,29.3,27.4
				c0,6.8-19.7,22.1-27.2,27.3C42,62.7,41.7,61.4,41.7,61.4z"/>
			<path class="st2" d="M22.2,76.8c0,0,17.3-26,17.3-42.6S31.8,7.8,29.1,3.5c-0.9-1.4,0.5-1.1,0.5-1.1S48.8,13,48.8,34.3
				s-18.2,35.3-25,42.2C22.1,78.3,22.2,76.8,22.2,76.8z"/>
			<path class="st1" d="M1,105.7c0,0-1.8,1.2-0.5-1c7.1-12.2,27.6-52,27.6-70.6S23.4,6.4,20.6,1.8C19.3-0.3,20.3,0,20.3,0
				s14.4,12.8,14.4,34S1,105.7,1,105.7z"/>
		</g>
	</g>
</g>
</svg>
